Coordinates
version=1
nRows=13
nColumns=34
inDegrees=yes

Units are S.I. units (second, meters, Newtons, ...)
If the header above contains a line with 'inDegrees', this indicates whether rotational values are in degrees (yes) or radians (no).

endheader
time	pelvis_tilt	pelvis_list	pelvis_rotation	pelvis_tx	pelvis_ty	pelvis_tz	hip_flexion_r	hip_adduction_r	hip_rotation_r	knee_angle_r	ankle_angle_r	subtalar_angle_r	mtp_angle_r	hip_flexion_l	hip_adduction_l	hip_rotation_l	knee_angle_l	ankle_angle_l	subtalar_angle_l	mtp_angle_l	lumbar_extension	lumbar_bending	lumbar_rotation	arm_flex_r	arm_add_r	arm_rot_r	elbow_flex_r	pro_sup_r	arm_flex_l	arm_add_l	arm_rot_l	elbow_flex_l	pro_sup_l
      2.25000000	     -6.08300775	      1.34105769	     -3.26769137	      1.76744901	      0.89268993	     -0.20494959	      1.95950937	     -5.05086380	      2.61788704	      0.00000000	      2.52313805	    -19.31385603	      0.00000000	      1.40148611	     -4.50550908	     -5.74290489	      0.49776484	      3.83271839	     -2.17474860	      0.00000000	     -6.80044216	      1.11920937	     -0.00083290	     12.81458465	     -4.93275618	     36.53005190	     75.30786117	     88.21591223	     12.34943573	     -7.86805658	     32.08083018	     71.68171255	     89.42038944
      2.26666670	     -6.08677095	      1.34001509	     -3.26722488	      1.76731461	      0.89281212	     -0.20490326	      1.95800674	     -5.05295351	      2.61820986	      0.00000000	      2.52303225	    -19.31382953	      0.00000000	      1.40076899	     -4.50500907	     -5.74343569	      0.49814010	      3.83262653	     -2.17502932	      0.00000000	     -6.80065583	      1.11967817	     -0.00088461	     12.81446640	     -4.93277278	     36.53011915	     75.30797260	     88.21564698	     12.34974916	     -7.86815693	     32.08076921	     71.68160416	     89.42037397
      2.28333330	     -6.08820356	      1.33897881	     -3.26643356	      1.76722691	      0.89317011	     -0.20483171	      1.95780284	     -5.05607604	      2.61884912	      0.00000000	      2.52291115	    -19.31368434	      0.00000000	      1.40185287	     -4.50508008	     -5.74418052	      0.49748186	      3.83253141	     -2.17544902	      0.00000000	     -6.80073926	      1.12018142	     -0.00114825	     12.81440715	     -4.93290422	     36.53011515	     75.30810082	     88.21533087	     12.35034684	     -7.86820817	     32.08063970	     71.68150035	     89.42035122
      2.30000000	     -6.08833596	      1.33954451	     -3.26585385	      1.76718995	      0.89351512	     -0.20481533	      1.95826549	     -5.05820515	      2.61949227	      0.00000000	      2.52276598	    -19.31345901	      0.00000000	      1.40324437	     -4.50599644	     -5.74481103	      0.49658348	      3.83238961	     -2.17577896	      0.00000000	     -6.80083411	      1.12047201	     -0.00153366	     12.81437704	     -4.93315588	     36.53002974	     75.30813047	     88.21509606	     12.35097679	     -7.86826965	     32.08047706	     71.68140490	     89.42033024
      2.31666670	     -6.08656247	      1.34209085	     -3.26569400	      1.76718545	      0.89356838	     -0.20488659	      1.95902473	     -5.05889004	      2.62014720	      0.00000000	      2.52253462	    -19.31312527	      0.00000000	      1.40503111	     -4.50747229	     -5.74540259	      0.49545301	      3.83212897	     -2.17600339	      0.00000000	     -6.80120810	      1.12059602	     -0.00204419	     12.81430887	     -4.93357336	     36.52987459	     75.30802854	     88.21489093	     12.35166680	     -7.86842398	     32.08025837	     71.68124498	     89.42030744
      2.33333330	     -6.08422807	      1.34297914	     -3.26573033	      1.76717449	      0.89339504	     -0.20491527	      1.95951472	     -5.06076371	      2.62089831	      0.00000000	      2.52214456	    -19.31264577	      0.00000000	      1.40728834	     -4.50839177	     -5.74614609	      0.49406858	      3.83165106	     -2.17618620	      0.00000000	     -6.80195091	      1.12067799	     -0.00291851	     12.81419519	     -4.93440020	     36.52956403	     75.30777329	     88.21464260	     12.35265141	     -7.86866952	     32.07991577	     71.68098951	     89.42027568
      2.35000000	     -6.12440394	      1.39685697	     -3.24998393	      1.76678103	      0.89299989	     -0.20490761	      2.02463573	     -5.14519752	      2.69562282	      0.00000000	      2.47076878	    -19.26232509	      0.00000000	      1.47187659	     -4.43836127	     -5.84307833	      0.44567843	      3.75702325	     -2.19716637	      0.00000000	     -6.88511055	      1.11304044	     -0.11768702	     12.82218126	     -5.04715069	     36.47817411	     75.28074550	     88.18302465	     12.49509897	     -7.90751641	     32.02626902	     71.65172571	     89.41574848
      2.36666670	     -6.11561563	      1.40301971	     -3.25568629	      1.76634179	      0.89263549	     -0.20447193	      2.02404415	     -5.14803689	      2.69425665	      0.00000000	      2.46889743	    -19.26240993	      0.00000000	      1.47721608	     -4.44710987	     -5.84518489	      0.44341509	      3.75119987	     -2.19669362	      0.00000000	     -6.88128360	      1.10800404	     -0.11649898	     12.82638027	     -5.04621020	     36.47630720	     75.28238407	     88.18092639	     12.49686179	     -7.90912995	     32.02440911	     71.64981923	     89.41554205
      2.38333330	     -6.11398354	      1.39186013	     -3.33826096	      1.76587916	      0.89225146	     -0.20402326	      2.06386383	     -5.11078695	      2.66363228	      0.00000000	      2.45350315	    -19.27685681	      0.00000000	      1.48039927	     -4.48594722	     -5.88185725	      0.44353385	      3.68209190	     -2.19565451	      0.00000000	     -6.87132869	      1.02790835	     -0.10241015	     12.89046287	     -5.03484863	     36.44954233	     75.29846448	     88.15689865	     12.54851345	     -7.94309933	     31.99042993	     71.63006880	     89.41251356
      2.40000000	     -6.10262288	      1.40278876	     -3.33965164	      1.76566186	      0.89215855	     -0.20389930	      2.06404321	     -5.10292124	      2.66302463	      0.00000000	      2.45237040	    -19.27747296	      0.00000000	      1.49437356	     -4.48893492	     -5.88596042	      0.43428368	      3.67905630	     -2.19674073	      0.00000000	     -6.87291668	      1.02802365	     -0.10089659	     12.89268451	     -5.03520753	     36.44813261	     75.29819032	     88.15523119	     12.55032863	     -7.94354189	     31.98897228	     71.62906930	     89.41236389
      2.41666670	     -6.09576623	      1.40984146	     -3.34136698	      1.76582208	      0.89214918	     -0.20406583	      2.06623973	     -5.09769096	      2.66272122	      0.00000000	      2.45225103	    -19.27772052	      0.00000000	      1.49920664	     -4.49099237	     -5.88651276	      0.43162479	      3.67854756	     -2.19686926	      0.00000000	     -6.87356432	      1.02776209	     -0.10087320	     12.89327691	     -5.03536639	     36.44776533	     75.29806489	     88.15495954	     12.55083444	     -7.94342738	     31.98875967	     71.62895965	     89.41234134
      2.43333330	     -6.08837761	      1.41780658	     -3.34397172	      1.76606278	      0.89235409	     -0.20426605	      2.06902913	     -5.09021078	      2.66220594	      0.00000000	      2.45217241	    -19.27813294	      0.00000000	      1.50499171	     -4.49197368	     -5.88709022	      0.42874103	      3.67799322	     -2.19700670	      0.00000000	     -6.87444493	      1.02732051	     -0.10119863	     12.89395843	     -5.03570286	     36.44726923	     75.29785484	     88.15466783	     12.55132329	     -7.94282615	     31.98871543	     71.62894472	     89.41232767
      2.45000000	     -6.11338920	      1.40088492	     -3.42232961	      1.76622735	      0.89272605	     -0.20438386	      2.13623675	     -5.03734360	      2.61812732	      0.00000000	      2.44496432	    -19.30898328	      0.00000000	      1.52696147	     -4.50813717	     -5.94646128	      0.41687835	      3.63090400	     -2.21145934	      0.00000000	     -6.94839922	      0.99489907	     -0.14206878	     12.91780475	     -5.06873399	     36.41595051	     75.27295020	     88.13462798	     12.55546576	     -7.86366899	     32.00574364	     71.63026653	     89.41250870
